<?xml version="1.0" encoding="utf-8"?>
<!-- Generator: Adobe Illustrator 19.0.1, SVG Export Plug-In . SVG Version: 6.00 Build 0)  -->
<svg version="1.1" id="Слой_1" xmlns="http://www.w3.org/2000/svg" xmlns:xlink="http://www.w3.org/1999/xlink" x="0px" y="0px"
	 viewBox="0 0 2000 1400" style="enable-background:new 0 0 2000 1400;" xml:space="preserve">
<style type="text/css">
	.st0{fill:#F48315;}
	.st1{fill:#EC1D25;}
</style>
<g>
	<g>
		<path class="st0" d="M288.0174561,1131.8289795h-57.0045624c-1.0079956,0-1.9022064,0.6462402-2.2139282,1.6064453
			l-35.8960571,109.8406982l-31.8095245-109.7679443c-0.2889709-0.9920654-1.2013855-1.6791992-2.2389526-1.6791992h-56.5244675
			c-1.2878494,0-2.3299637,1.0421143-2.3299637,2.3299561v161.5732422c0,1.2878418,1.0421143,2.3299561,2.3299637,2.3299561
			h36.0803757c1.2878418,0,2.3299561-1.0421143,2.3299561-2.3299561v-99.3284912l31.7685699,100.0339355
			c0.3071747,0.9692383,1.2059326,1.6245117,2.2207489,1.6245117h36.080368c0.9829559,0,1.858963-0.6188965,2.1934357-1.5426025
			l36.6059723-101.7860107v100.9986572c0,1.2878418,1.0421143,2.3299561,2.3299713,2.3299561h36.0780945
			c1.2878418,0,2.3299561-1.0421143,2.3299561-2.3299561v-161.5732422
			C290.3474121,1132.8710938,289.3052979,1131.8289795,288.0174561,1131.8289795z"/>
		<path class="st0" d="M486.9065857,1206.5198975h-76.2472839c-1.2878418,0-2.3299866,1.0421143-2.3299866,2.3299561v27.704834
			c0,1.2878418,1.0421448,2.3299561,2.3299866,2.3299561H453.81604
			c-4.0114746,18.3485107-21.3997498,28.8060303-48.2080383,28.8060303c-32.6149902,0-55.3936157-21.9162598-55.3936157-53.2979736
			c0-33.170166,19.7523804-52.1922607,54.1922302-52.1922607c23.9777222,0,39.0110168,8.013916,45.9577026,24.5056152
			c0.3640442,0.8647461,1.2104797,1.4244385,2.1479187,1.4244385h34.3943481c0.6712341,0,1.3083191-0.2867432,1.7497253-0.7918701
			c0.4436951-0.505127,0.6462097-1.1740723,0.5597534-1.838501c-4.5939636-35.272583-36.3875427-56.3287354-85.0506287-56.3287354
			c-58.4084778,0-94.6913452,32.8243408-94.6913452,85.6627197c0,51.3730469,36.6992493,85.8857422,91.3237915,85.8857422
			c54.5517273,0,88.4386597-18.7261963,88.4386597-48.8702393v-42.9997559
			C489.2365417,1207.5620117,488.1944275,1206.5198975,486.9065857,1206.5198975z"/>
		<path class="st0" d="M617.3665771,1201.6734619l-31.5046387-4.878418
			c-31.038208-4.878418-36.276062-9.7248535-36.276062-18.7489014c0-10.7033691,12.776123-17.6204834,32.5467529-17.6204834
			c25.4225464,0,40.0030518,8.3597412,40.0030518,22.9401855c0,1.2878418,1.0421143,2.3299561,2.3300171,2.3299561h33.6730347
			c1.2878418,0,2.3299561-1.0421143,2.3299561-2.3299561c0-24.723999-13.2562866-54.194458-76.4111328-54.194458
			c-47.4139404,0-73.5259399,18.4577637-73.5259399,51.9737549c0,26.7172852,14.4758301,39.1134033,53.4413452,45.7437744
			l28.3760376,4.4324951c27.5386353,4.4095459,35.0791626,8.6827393,35.0791626,19.8637695
			c0,15.9047852-23.5567627,18.2802734-37.5980225,18.2802734c-27.1018066,0-42.6470337-8.9239502-42.6470337-24.4874268
			c0-1.2878418-1.0421143-2.3299561-2.3299561-2.3299561H509.73526c-1.2878723,0-2.3299866,1.0421143-2.3299866,2.3299561
			c0,35.946167,28.503418,55.7418213,80.258728,55.7418213c50.9816895,0,79.057373-19.0084229,79.057373-53.5256348
			C666.7213745,1220.9047852,652.4343872,1207.7167969,617.3665771,1201.6734619z"/>
		<path class="st0" d="M777.9006348,1129.1645508c-56.067627,0-93.7247314,34.4343262-93.7247314,85.6673584
			c0,52.1756592,36.8817749,85.8952637,93.9678955,85.8952637c56.3412476,0,94.2112427-34.0692139,94.2112427-84.7854004
			C872.3550415,1163.2341309,835.2755737,1129.1645508,777.9006348,1129.1645508z M778.1437988,1267.6917725
			c-32.3361816,0-53.2398682-20.751709-53.2398682-52.8598633c0-31.4847412,21.4053955-52.6318359,53.2398682-52.6318359
			c32.4729614,0,53.4678955,21.0101318,53.4678955,53.5288086
			C831.6116943,1247.2896729,810.6167603,1267.6917725,778.1437988,1267.6917725z"/>
		<path class="st0" d="M1042.9383545,1131.8289795h-36.078125c-1.2879028,0-2.3300171,1.0421143-2.3300171,2.3299561v107.0511475
			c0,18.0662842-11.4882813,26.4805908-36.1553955,26.4805908c-24.664917,0-36.1531982-8.4143066-36.1531982-26.4805908
			v-107.0511475c0-1.2878418-1.0421143-2.3299561-2.3299561-2.3299561h-36.0803833
			c-1.2878418,0-2.3299561,1.0421143-2.3299561,2.3299561v107.0511475c0,37.8210449,28.0255737,59.5097656,76.8934937,59.5097656
			c48.8678589,0,76.8934937-21.6887207,76.8934937-59.5097656v-107.0511475
			C1045.2683105,1132.8710938,1044.2261963,1131.8289795,1042.9383545,1131.8289795z"/>
		<path class="st0" d="M1155.1430664,1203.9033203l73.3598633-68.0378418
			c0.703125-0.6507568,0.9351807-1.6655273,0.5847168-2.5574951c-0.3503418-0.8919678-1.2104492-1.4790039-2.168335-1.4790039
			h-43.5345459c-0.5755615,0-1.1307373,0.2138672-1.5585938,0.5961914l-75.0048828,67.4279785v-65.6942139
			c0-1.2878418-1.0421143-2.3299561-2.3299561-2.3299561h-36.0804443c-1.2878418,0-2.3299561,1.0421143-2.3299561,2.3299561
			v161.5732422c0,1.2878418,1.0421143,2.3299561,2.3299561,2.3299561h36.0804443
			c1.2878418,0,2.3299561-1.0421143,2.3299561-2.3299561v-52.9840088l18.3780518-15.1811523l64.4108887,69.7442627
			c0.4414063,0.4779053,1.0603027,0.7508545,1.7110596,0.7508545h43.2932129c0.9193115,0,1.7542725-0.5415039,2.1274414-1.3834229
			c0.3754883-0.8372803,0.2207031-1.8201904-0.395874-2.5028076L1155.1430664,1203.9033203z"/>
		<path class="st0" d="M1277.3435059,1261.0421143h-3.7180176c-10.2227783,0-18.5100098,8.2872314-18.5100098,18.5100098l0,0
			c0,10.2227783,8.2872314,18.5100098,18.5100098,18.5100098h3.7180176c10.2227783,0,18.5100098-8.2872314,18.5100098-18.5100098
			l0,0C1295.8535156,1269.3293457,1287.5662842,1261.0421143,1277.3435059,1261.0421143z"/>
		<path class="st0" d="M1483.7731934,1238.2156982h-35.1224365c-1.1832275,0-2.175293,0.8873291-2.3164063,2.0615234
			c-2.1524658,18.4849854-16.3461914,27.859375-42.180542,27.859375c-30.9221191,0-48.6585693-19.185791-48.6585693-52.6380615
			c0-33.8709717,18.262085-53.2980957,50.1057129-53.2980957c22.4577637,0,35.4273682,8.6918945,40.810791,27.3498535
			c0.2867432,0.996582,1.201416,1.6838379,2.2390137,1.6838379h34.3988037c0.6507568,0,1.2741699-0.2730713,1.7156982-0.7509766
			c0.4414063-0.4822998,0.65979-1.1240234,0.6052246-1.7747803c-3.1309814-37.2794189-33.4932861-59.5369873-81.2166748-59.5369873
			c-56.8134766,0-89.3988037,31.3044434-89.3988037,85.8857422c0,53.6392822,33.0609131,85.6627197,88.4385986,85.6627197
			c50.4538574,0,80.6705322-21.8843994,82.9049072-60.0377197c0.036499-0.6416016-0.19104-1.2696533-0.6324463-1.7337646
			C1485.0291748,1238.4796143,1484.4147949,1238.2156982,1483.7731934,1238.2156982z"/>
		<path class="st0" d="M1595.5931396,1129.1645508c-56.0675049,0-93.7247314,34.4343262-93.7247314,85.6673584
			c0,52.1756592,36.8818359,85.8952637,93.9678955,85.8952637c56.3413086,0,94.2113037-34.0692139,94.2113037-84.7854004
			C1690.0476074,1163.2341309,1652.9681396,1129.1645508,1595.5931396,1129.1645508z M1595.8363037,1267.6917725
			c-32.3360596,0-53.2244873-20.751709-53.2244873-52.8598633c0-31.4847412,21.375-52.6318359,53.2244873-52.6318359
			c32.4731445,0,53.4680176,21.0101318,53.4680176,53.5288086
			C1649.3043213,1247.2896729,1628.3094482,1267.6917725,1595.8363037,1267.6917725z"/>
		<path class="st0" d="M1897.6700439,1131.8289795h-57.0023193c-1.0057373,0-1.9022217,0.6462402-2.2161865,1.6064453
			l-35.8961182,109.8406982l-31.8049316-109.7679443c-0.2912598-0.9920654-1.201416-1.6791992-2.2388916-1.6791992h-56.5245361
			c-1.2878418,0-2.3299561,1.0421143-2.3299561,2.3299561v161.5732422c0,1.2878418,1.0421143,2.3299561,2.3299561,2.3299561
			h36.0736084c1.2878418,0,2.3299561-1.0421143,2.3299561-2.3299561v-99.3330078l31.7730713,100.0384521
			c0.3094482,0.9692383,1.2059326,1.6245117,2.2208252,1.6245117h36.0780029c0.9830322,0,1.8613281-0.6188965,2.1934814-1.5426025
			l36.605957-101.7860107v100.9986572c0,1.2878418,1.0421143,2.3299561,2.3299561,2.3299561h36.078125
			c1.2878418,0,2.3299561-1.0421143,2.3299561-2.3299561v-161.5732422
			C1900,1132.8710938,1898.9578857,1131.8289795,1897.6700439,1131.8289795z"/>
	</g>
	<g>
		<path class="st0" d="M963.241333,980.1046143l-7.4387817-11.526001H688.3718872
			c-4.5271606,0-8.8047485-1.1040039-12.6203003-3.1344604c-0.3100586-0.164978-0.6325073-0.3048706-0.9362183-0.4824829
			c-0.0927124-0.0543823-0.1777954-0.1224976-0.2700195-0.1779785c-1.5126953-0.9102783-2.9491577-1.9641724-4.2784424-3.1802979
			c-0.7032471-0.6437988-1.3786621-1.3291016-2.0233765-2.0552979c-1.9438477-2.1889038-3.4858398-4.6109009-4.6051636-7.1914063
			c-1.8637085-4.3000488-2.555542-9.0438232-1.9730225-13.8787842l29.0231323-240.305481l39.7644653-329.188446
			c0.7116089-5.9127502,3.3059082-11.182312,7.1384888-15.2398071c4.928833-5.216095,11.9033203-8.4292297,19.5559692-8.4292297
			H815.81604c0.3878174-2.6716309,0.8187866-5.2994385,1.2752075-7.9001465
			c0.0646973-0.3652039,0.1265869-0.7347107,0.1920776-1.0967712c0.432251-2.4036255,0.8964844-4.7723694,1.3855591-7.112915
			c0.1103516-0.5196228,0.2206421-1.0358887,0.3309937-1.5514526c0.1127319-0.5231323,0.2398682-1.0292053,0.3554077-1.5488281
			c0.0007935,0.0036926,0.0015259,0.0074158,0.0023804,0.0111389c0.1674194-0.7748108,0.3492432-1.533844,0.5231323-2.3015747
			c0.227478-0.978363,0.4381714-1.9766235,0.675354-2.9429321c0.0794067-0.3310547,0.1654663-0.6543579,0.2460938-0.9839478
			c0.5722046-2.2887573,1.1703491-4.5452271,1.7967529-6.7640076c0.0401611-0.1440125,0.0794678-0.2921143,0.1191406-0.4351807
			h-0.0296021c0.0090332-0.0321045,0.0174561-0.0647583,0.0264282-0.0966797
			c0.1516724-0.5523071,0.3074341-1.0949402,0.4625244-1.6386719c0.2658081-0.9204712,0.5405884-1.8292542,0.815979-2.7373047
			c0.1678467-0.551178,0.3356323-1.1025391,0.5033569-1.6539001c0.1596069-0.5266724,0.3347168-1.043335,0.5026855-1.5638733
			c0.1782227-0.5554504,0.3554688-1.1121826,0.5372314-1.6624146c0.1818848-0.5602722,0.3687134-1.1114502,0.5543213-1.6628113
			c0.2939453-0.8648071,0.5950928-1.7186584,0.897644-2.5704651c0.2324219-0.651001,0.4598999-1.3040771,0.7007446-1.9493408
			c0.3678589-1.0011902,0.7406616-1.9944153,1.1202393-2.9763184c0.1038818-0.271698,0.2073364-0.5455933,0.3132935-0.8156128
			c0.4296265-1.0962219,0.8696289-2.1740723,1.3135376-3.2452393c0.0986938-0.2375488,0.1945801-0.481781,0.293457-0.7178345
			c5.3513184-13.0440369,11.8276978-24.278656,19.246582-33.4155121
			c13.4240112-70.5559692,75.5878906-124.0998535,150.0507202-124.0998535
			c84.2078247,0,152.6959839,68.503479,152.6959839,152.7112579c0,1.5809631-0.0456543,3.2229614-0.0913086,4.8041077h32.6706543
			c0.0456543-1.5811462,0.0456543-3.1774902,0.0456543-4.8041077c0-102.1927032-83.128418-185.3209839-185.3209839-185.3209839
			c-102.2381592,0-185.3817749,83.128273-185.3817749,185.3209839c0,1.625885,0.0001831,3.2214966,0.1063232,4.8018799h-0.0075073
			c0.0130005,0.5845947,0.0429688,1.1648865,0.0616455,1.7481689c0.0135498,0.4010315,0.0185547,0.8063354,0.0371704,1.2033081
			c0.0037231,0.1254578,0.0142822,0.2512817,0.0184937,0.376709c0.1064453,2.6181641,0.270874,5.2213135,0.4890137,7.809967
			c0.0516968,0.6372681,0.1077881,1.2734375,0.1668091,1.9084778c0.0525513,0.5526733,0.1051636,1.10495,0.1626587,1.6561279
			c0.1162109,1.1264648,0.2445068,2.2499695,0.3825073,3.3705139c0.0314331,0.2542419,0.0597534,0.5095825,0.0922241,0.7634583
			c0.1901245,1.4894714,0.3927002,2.9755859,0.6190796,4.4559631h-59.625061
			c-30.0557251,0-55.4594116,22.5151062-59.0928955,52.3886414l-50.8001709,420.6401367l-17.9771118,148.8465576
			c-0.2176514,1.7912598-0.3344727,3.5831909-0.3878784,5.3723755c-0.0811768,2.7148438,0.0238037,5.4194946,0.3118896,8.0992432
			c0.8005981,7.4523315,3.0073242,14.6888428,6.4899902,21.3233032c2.2098389,4.2119141,4.9152222,8.1878052,8.1200562,11.8079224
			c11.2803955,12.7244263,27.5473022,20.0370483,44.5591431,20.0370483h288.4865112l-0.0018921-0.0029907h0.006897
			L963.241333,980.1046143z"/>
		<path class="st0" d="M1370.7211914,934.5636597l-68.7807617-569.4907837
			c-1.151123-9.4601135-4.4859619-18.1775513-9.4544678-25.6794128
			c-10.717041-16.1888733-29.0578613-26.7051392-49.6259766-26.7051392H886.6455078
			c-1.2510986,3.1305542-2.4868774,6.5684204-3.6759644,10.2909546c-1.8676147,5.839447-3.6097412,12.4234619-5.1046753,19.7019043
			c-0.1802979,0.8757629-0.3658447,1.7361145-0.5386353,2.6322632h0.0012817
			c-0.000061,0.0003662-0.0001831,0.0009155-0.0002441,0.0014954h365.5252686
			c13.6069336,0,25.0705566,10.1584473,26.701416,23.6723633l41.6578369,344.9185791l27.1212158,224.5712891
			c0.7197266,6.0059204-0.5428467,11.8544922-3.5507813,16.9061279c-0.8681641,1.4555054-1.8607178,2.8540649-3.0183105,4.1575928
			c-3.8017578,4.281311-8.6660156,7.1377563-14.0828857,8.3590698c-1.9516602,0.4389038-3.9707031,0.6786499-6.0439453,0.6786499
			h-171.5321045l-0.0037842,0.0025635h-0.0001221l-49.907959,32.6193848h0.0057373l-0.0043945,0.0029907h221.442627
			c17.0117188,0,33.2634277-7.3126221,44.5439453-20.0370483c3.5362549-3.9890747,6.4842529-8.3999023,8.8035889-13.0949097
			C1370.0650635,957.7911987,1372.1287842,946.1447754,1370.7211914,934.5636597z"/>
		<path class="st0" d="M744.6618652,802.8932495c5.4378662-40.7254639,10.366333-81.512207,14.7616577-122.3635254
			c2.2043457-20.4249268,4.2896729-40.8639526,6.2084351-61.3234253c1.0272217-10.2213745,1.8108521-20.472229,2.7084961-30.7093506
			l2.6186523-30.7203369c1.4084473-20.520874,3.1055908-41.007019,4.171814-61.5692749
			c1.2639771-20.5383301,2.1801147-41.1189575,2.6929321-61.7479858
			c-4.4136353,20.1580505-8.4242554,40.3647156-12.0864258,60.6133423
			c-3.8601685,20.2248535-7.0891724,40.526001-10.6071777,60.7922363l-4.770813,30.460144
			c-1.5654297,10.1566162-3.2452393,20.2993164-4.6806641,30.4713135
			c-3.0078125,20.3276978-5.848877,40.6757813-8.5710449,61.0379639
			c-5.4571533,40.7230835-10.3815918,81.510376-14.7960815,122.359314
			c-2.2161865,20.4232178-4.3030396,40.8624268-6.2210693,61.3217163
			c-1.9457397,20.4560547-3.5391235,40.954834-5.3258057,61.4298706l-0.0629272,0.7103882
			c-0.0266724,0.3323975-0.0317993,0.670166-0.0141602,1.012146c0.2158813,4.213623,3.8069458,7.4540405,8.0203857,7.2380371
			c20.5458984-1.0534058,41.0921021-1.8312988,61.6380005-3.2443237
			c10.2730103-0.6176147,20.5459595-1.2816162,30.8189087-2.1100464c10.2729492-0.7473145,20.5458984-1.630127,30.8188477-2.6463623
			c-10.2729492-1.0162354-20.5458984-1.8988647-30.8188477-2.6461792
			c-10.2729492-0.8286133-20.5458984-1.4926147-30.8189087-2.1098633
			c-17.4547729-1.2005005-34.9099731-1.9495239-52.3647461-2.7915039
			c2.7384644-17.4712524,5.5581055-34.9326172,8.1224365-52.4248047
			C739.1119995,843.6048584,741.9516602,823.2567749,744.6618652,802.8932495z"/>
	</g>
	<g>
		<path class="st1" d="M846.1323853,481.47229c8.7282715,25.9481506,21.4725342,44.6607056,35.7754517,52.6289673
			c0.9693604,0.6144409,1.8862915,1.0741577,2.9466553,1.574646l1.5358276,0.6779175
			c0.7235718,0.3640747,1.4857788,0.6554565,1.9090576,0.7373047c0.4959717,0.2002563,0.9896851,0.3550415,1.5267944,0.5142212
			c0.791748,0.263916,1.531311,0.4732666,2.3799438,0.6417847l0.4573364,0.0908813
			c0.4141235,0.0909424,0.8259277,0.1729736,0.9807129,0.1729736c0.0045776,0,0.0090942-0.0044556,0.0136719-0.0044556
			c0.7599487,0.1681519,1.5745239,0.322937,2.2047729,0.3639526c1.2127686,0.1547852,2.4300537,0.2046509,3.6451416,0.2046509
			c0.4368896,0,0.8692017-0.0089111,0.9783936-0.0452271c0.3526611,0,0.673584-0.0046387,0.9875488-0.0319214
			c0.029541,0,0.0591431,0.0044556,0.0886841,0.0044556c0.2480469,0,0.5164795-0.0545654,0.7759399-0.1410522l0.1068726-0.0181885
			c0.1297607,0,0.2071533,0.0090942,0.270752,0.0090942c0.0979004,0,0.1661987-0.0181885,0.3459473-0.1000366
			c9.1013794-1.7110596,15.4588013-9.3973999,15.4588013-18.6897583c0-1.8387451-0.2844849-3.7089844-0.8441772-5.5655518
			c-0.2321167-0.7738647-0.8510132-1.3699341-1.6314697-1.5792847c-0.197876-0.0501099-0.3981323-0.0772095-0.5983887-0.0772095
			c-0.5870972,0-1.1627197,0.2229004-1.6018066,0.6369629c-4.8101807,4.5507813-9.7681885,6.9581299-14.3370972,6.9581299
			c-6.4165039,0-13.2858276-4.5508423-19.8638916-13.160614c-3.105896-4.0638123-6.0820313-8.9969177-8.8306274-14.6260986
			l-0.2366333-0.5005188c-0.2821655-0.5916138-0.5780029-1.2059021-0.8919678-1.9933167
			c-0.7190552-1.4835205-1.3925171-3.0125122-2.0568848-4.714447c-1.1582031-2.6668091-2.109314-5.1468811-2.9284668-7.6453552
			c-2.2752686-6.3026428-4.2388916-13.0195313-5.9454956-20.4007874l-0.5892944-2.5257568
			c-0.6462402-2.8577271-1.2469482-5.7655945-1.7975464-8.7554626c-0.5073853-2.8124695-0.9692993-5.6748352-1.3970337-8.6600647
			c-0.2298584-1.2742004-0.4096069-2.5938721-0.5870972-3.8953247c-1.1672363-9.0785828-1.9135132-18.2892761-2.2207642-27.3771362
			c-0.1387939-3.7952881-0.2320557-7.6315918-0.2320557-11.5634766c0-8.7419128,0.3572388-17.4292908,1.0626221-25.8024597
			c0.7258301-8.3779907,1.7838745-16.573761,3.1445923-24.3553162c0.1796875-1.0377502,0.359436-2.025238,0.5960693-3.0809937
			c0.3208618-1.6518555,0.6439819-3.3037109,1.0239258-4.9739075c0.3162231-1.5837402,0.630249-3.1672974,1.0557861-4.7736816
			c2.5779419-11.0718689,5.8726807-21.27005,9.7885742-30.2942505c1.7474976-3.959137,3.5109253-7.4859009,5.3880615-10.7807007
			c8.0593262-14.0298462,17.1220093-21.7568359,25.5181274-21.7568359c8.4119873,0,17.456604,7.7269897,25.4703979,21.7523804
			c0.4141235,0.7282104,1.1854858,1.1741638,2.0228271,1.1741638h15.8911133c0.8054199,0,1.5516968-0.414032,1.9772339-1.0967712
			c0.425415-0.6871948,0.468689-1.5380859,0.1137695-2.2616577c-12.1185303-24.6375732-28.2667847-38.2079315-45.4753418-38.2079315
			c-22.9765625,0-43.1521606,23.2633514-55.3616943,63.8465424l-0.3618164,1.2288818
			c-0.3230591,1.0737915-0.6461792,2.1614685-0.8942261,3.1899414c-0.666687,2.2844849-1.2833862,4.6144409-1.7883911,6.87146
			c-0.5689087,2.1798401-1.0899048,4.4507751-1.5609131,6.7168884c-0.8965454,4.1959534-1.7042847,8.5325928-2.4005127,12.8833313
			l-0.2844849,1.7292175l-0.6051636,4.1455078c-1.9637451,14.0299988-2.9602661,28.7834167-2.9602661,43.8461914
			c0,31.7595825,4.3754883,61.5986023,12.6100464,86.1497192C845.961731,481.0035095,846.0549927,481.3676147,846.1323853,481.47229
			z"/>
		<path class="st1" d="M947.6657104,425.8488159l13.8387451,2.421051c0.132019,0.022644,0.2661743,0.036377,0.4004517,0.036377
			c0.505127,0,1.0012207-0.1638489,1.4107666-0.4778748c0.5164795-0.3913879,0.8464355-0.9830017,0.9078979-1.6245422
			c0.996521-10.248291,1.501709-20.8742065,1.501709-31.5866394c0-8.5871582-0.3458252-17.3973694-1.0307617-26.1847534
			c-0.09552-1.2105408-1.105835-2.1479187-2.3231812-2.1479187H948.34375c-0.6529541,0-1.2741699,0.2730103-1.7155762,0.7555237
			c-0.4414063,0.4776611-0.6598511,1.1194153-0.6052856,1.77005c0.7053833,8.3551636,1.0626221,17.0380859,1.0626221,25.8070984
			c0,9.8205261-0.4505005,19.4818115-1.3379517,28.7151489
			C945.6292725,424.5426941,946.4666138,425.6394653,947.6657104,425.8488159z"/>
		<path class="st1" d="M1285.7773438,802.4586182l-208.6268311-323.2702637
			c-4.3326416-6.7044373-11.2802734-11.3109131-19.1552734-12.7094421l-76.2871704-13.3784485l-23.0169678-4.0589905
			l-13.7431641-2.4173889l-23.0321655-4.0589905l-46.1705933-8.1031494
			c2.9797974,20.2196655,8.0118408,36.0151062,13.0439453,47.0675049c3.4053955-0.9423828,6.9932251-1.4441833,10.7178955-1.4441833
			s7.3125,0.5018005,10.7178955,1.4441833c7.8294067,2.1437988,14.68573,6.6589661,19.7634888,12.7096252
			c3.6334839,4.2416077,6.3395386,9.2279358,7.9206543,14.7313232c1.0185547,3.4967041,1.5810547,7.2212524,1.5810547,11.0980225
			c0,19.9459839-14.5794678,36.4408569-33.6436157,39.5118408c-1.307373,0.1367798-2.6148071,0.3648682-3.9678345,0.4105225
			c-0.7905884,0-1.5810547,0.0608521-2.3716431,0.0608521s-1.5811157-0.0608521-2.3716431-0.0608521
			c-29.5540161-1.2924194-54.1976318-26.6047363-69.1115112-67.0440979L785.8516235,644.532959
			c-2.189209,7.875061-0.8818359,16.3579102,3.5422363,23.244812l208.2010498,322.6166992
			c10.9155273,16.8597412,33.4609985,21.6638184,50.2449341,10.6721191l227.3106689-148.6519165
			C1291.8280029,841.4990845,1296.5864258,819.1816406,1285.7773438,802.4586182z M1103.9528809,781.2661743h-26.2701416
			v-82.1859131l-29.9645996,82.1859131h-26.2854004l-26.4527588-82.1859131v82.1859131h-26.2702026V665.1629639h41.1688232
			l24.7044067,84.1014404l27.8513184-84.1014404h41.5185547V781.2661743z M1179.7687988,728.0262451
			c-8.2093506-12.0103149-16.6165771-23.8835449-24.6739502-35.9848633
			c-8.057373-12.1014404-16.3276367-24.0657959-24.2026367-36.2888184
			c-7.9359131-12.1773682-15.9781494-24.2786865-23.8074951-36.5321655l-23.4121094-36.7904663l-22.9561768-37.0946045
			c-7.1604004-11.9797363-14.4729004-23.8531494-21.5269775-35.908783
			c-11.690918-2.5691528-23.3817749-5.1537476-35.0270996-7.9053345
			c-12.3445435-2.8583069-24.6586914-5.9140625-36.9273071-9.1216125
			c12.6334229,1.1704407,25.2516479,2.4778748,37.8243408,4.0133362c12.5877686,1.4594116,25.1299438,3.1014099,37.687439,4.7736816
			l1.7178955,0.2432861l1.2161865,1.717926c8.4376221,11.8579712,16.5557861,23.9138184,24.8565674,35.8479004
			l24.3394775,36.1977539l23.8834229,36.4864502c7.935791,12.1773682,15.6588135,24.5065918,23.4881592,36.744812
			c7.875,12.2230225,15.3851318,24.6739502,23.0777588,37.00354c7.7229004,12.3291626,15.0810547,24.8865967,22.621582,37.3074951
			c14.8226318,25.0388184,29.4780273,50.18396,43.2060547,75.9221802
			C1213.3515625,775.5499268,1196.4918213,751.8335571,1179.7687988,728.0262451z"/>
	</g>
</g>
</svg>
